<?xml version="1.0" standalone="no"?>
<!DOCTYPE svg PUBLIC "-//W3C//DTD SVG 20010904//EN"
 "http://www.w3.org/TR/2001/REC-SVG-20010904/DTD/svg10.dtd">
<svg version="1.0" xmlns="http://www.w3.org/2000/svg"
 width="128.000000pt" height="128.000000pt" viewBox="0 0 128.000000 128.000000"
 preserveAspectRatio="xMidYMid meet">
<metadata>
Created by potrace 1.14, written by Peter Selinger 2001-2017
</metadata>
<g transform="translate(0.000000,128.000000) scale(0.100000,-0.100000)"
fill="#000000" stroke="none">
<path d="M520 1171 c0 -5 7 -28 15 -52 14 -39 14 -48 1 -84 -10 -26 -15 -69
-14 -125 3 -140 -16 -285 -51 -380 -17 -49 -28 -94 -24 -107 5 -22 2 -23 -46
-23 -87 0 -162 -60 -141 -114 16 -43 115 -48 115 -5 0 21 16 29 57 29 43 0 62
-24 52 -65 -7 -30 18 -65 47 -65 15 0 17 -5 13 -29 -5 -24 -1 -32 19 -45 13
-9 40 -16 58 -16 19 1 46 -2 62 -6 37 -9 59 11 55 50 -3 28 0 31 28 34 19 2
36 -3 44 -12 7 -9 25 -16 41 -16 25 0 30 5 42 47 8 27 29 85 47 131 37 96 35
147 -6 236 -13 28 -24 60 -24 71 -1 11 -14 45 -30 75 -23 41 -30 68 -30 108 0
29 -6 67 -14 85 -7 18 -16 80 -20 137 -11 151 -45 189 -102 115 -21 -28 -33
-35 -62 -35 -25 0 -47 10 -78 35 -44 36 -54 41 -54 26z"/>
</g>
</svg>
